<?xml version="1.0" encoding="UTF-8" standalone="no" ?>
<!DOCTYPE svg PUBLIC "-//W3C//DTD SVG 1.1//EN" "http://www.w3.org/Graphics/SVG/1.1/DTD/svg11.dtd">
<svg xmlns="http://www.w3.org/2000/svg" xmlns:xlink="http://www.w3.org/1999/xlink" version="1.1" width="1280" height="1024" viewBox="0 0 1280 1024" xml:space="preserve">
<desc>Created with Fabric.js 5.3.0</desc>
<defs>
</defs>
<g transform="matrix(1 0 0 1 640 512)" id="background-logo"  > 
<rect style="stroke: none; stroke-width: 0; stroke-dasharray: none; stroke-linecap: butt; stroke-dashoffset: 0; stroke-linejoin: miter; stroke-miterlimit: 4; fill: rgb(255,255,255); fill-opacity: 0; fill-rule: nonzero; opacity: 1;"  paint-order="stroke"  x="-640" y="-512" rx="0" ry="0" width="1280" height="1024" />
</g>
<g transform="matrix(1.4920108362862212 0 0 1.492010836286221 260.69442210526324 512)" id="logo-logo"  >
<g style=""  paint-order="stroke"   >
		<g transform="matrix(0 -1.0030806221353972 1.003080622135397 0 0 0)"  >
<g style=""  paint-order="stroke"   >
		<g transform="matrix(1 0 0 1 0 0)"  >
<path style="stroke: none; stroke-width: 1; stroke-dasharray: none; stroke-linecap: butt; stroke-dashoffset: 0; stroke-linejoin: miter; stroke-miterlimit: 4; fill: rgb(15,94,143); fill-rule: nonzero; opacity: 1;"  paint-order="stroke"  transform=" translate(-99.6350905431677, -100.00380481127695)" d="M 127.86 19.5 C 93.7 7 53.9 18.09 31 46.22 C 8.100000000000001 74.35 4.75 115.22 23.68 146.45999999999998 C 42.61 177.69999999999996 79.43 193.79 115.16 187 C 155.85 179.25 185 142.46 185.45 101.5 C 185.12839348875255 64.86458773443763 162.21218599238836 32.23515528606349 127.85999999999999 19.5 Z M 123.86 172.39 C 94.02129497970246 182.8995662155028 60.79234839522026 173.88198622024095 40.36 149.73 C 19.89 125.41 17.36 89.58999999999999 33.79 62.47999999999999 C 50 35.76 82.19 21.34 112.89 27.54 C 148.07999999999998 34.64 173.25 65.77 173.65 101.49000000000001 C 173.3 132.84 153.73 161.78 123.9 172.39 Z M 98.3 195.86 C 46.42014126230071 195.28686884901435 4.503131150985666 153.3698587376993 3.930000000000007 101.49000000000001 C 3.91 99 0 99 0 101.49 C 0.6053904839655958 155.52684351276318 44.26315648723682 199.1846095160344 98.3 199.79 C 100.84 199.82 100.84 195.88 98.3 195.86 Z M 97.94 7.08 C 150.0407591885915 7.653181812199722 192.13681818780023 49.74924081140845 192.70999999999998 101.84999999999994 C 192.70999999999998 106.07 199.30999999999997 106.08 199.26999999999998 101.85 C 198.63776311364927 46.15096926986165 153.63903073013836 1.1522368863507353 97.94000000000003 0.5200000000000102 C 93.72 0.48 93.72 7 97.94 7.08 Z M 191.81 109.31 C 190.15569486274438 110.96636767897049 190.15680947168585 113.65002670160582 191.81248992231752 115.305019638293 C 193.4681703729492 116.9600125749802 196.1518296270508 116.9600125749802 197.80751007768248 115.30501963829302 C 199.46319052831416 113.65002670160582 199.46430513725562 110.9663676789705 197.81 109.31 C 197.01733126629335 108.50875659354612 195.93708239174512 108.05789487684453 194.81 108.05789487684453 C 193.68291760825488 108.05789487684453 192.60266873370665 108.50875659354612 191.81 109.31 Z M 193 119 C 192.0009782553198 119 191.10032662495868 119.6017961796145 190.71801755469713 120.52477192205824 C 190.33570848443554 121.44774766450196 190.54703120025306 122.51013869931461 191.25344625046924 123.21655374953077 C 191.9598613006854 123.92296879974694 193.02225233549802 124.13429151556446 193.94522807794178 123.75198244530287 C 194.8682038203855 123.3696733750413 195.47 122.46902174468018 195.47 121.47 C 195.47 120.10585666791793 194.36414333208205 119 193 119 Z M 2.19 97.36 C 3.377237421022201 97.47583427925497 4.433605137889001 96.60733772791016 4.549524238909743 95.42010858568676 C 4.665443339930484 94.23287944346336 3.7970222628904446 93.17644967964146 2.609801405525909 93.06044575744664 C 1.4225805481613736 92.94444183525181 0.36608874277677783 93.81278743355435 0.25 95 C 0.19424159700637605 95.57022821623849 0.3673213896172156 96.13924765575658 0.7311539176805524 96.58184805072023 C 1.0949864457438891 97.02444844568387 1.619759845898605 97.30436381798368 2.1899999999999995 97.36 Z M 3.34 91.2 C 4.043322666334438 91.26833565957735 4.668968613970261 90.75380436419009 4.7377120726268425 90.05052143944246 C 4.806455531283424 89.34723851469482 4.292287093336135 88.7212943293677 3.5890441466244996 88.65214309474395 C 2.885801199912863 88.5829918601202 2.259558987341717 89.09679726776011 2.19 89.8 C 2.1259820645659135 90.50262910580793 2.6383161753112616 91.1263401971501 3.34 91.2 Z M 89.12 8.06 C 91.21960188787928 7.0242084966374065 92.08232920150375 4.482714919048352 91.04716256998051 2.382804880259739 C 90.01199593845726 0.2828948414711263 87.47075921466711 -0.5805887636195433 85.37054121094003 0.45395290438859437 C 83.27032320721297 1.488494572396732 82.40608338712738 4.0294742173326235 83.44 6.129999999999999 C 83.93689841111302 7.139508804592485 84.81467909847872 7.910114453423454 85.88003155251198 8.27210921333264 C 86.94538400654523 8.634103973241828 88.11093521753321 8.557799480013433 89.12 8.06 Z M 79.32000000000001 8.93 C 80.52891625063141 8.320149836094815 81.0177184279693 6.847998382460929 80.41365536617494 5.636180103661879 C 79.80959230438057 4.424361824862828 78.33979476342945 3.928526509843171 77.12510215921824 4.52678866035119 C 75.91040955500705 5.12505081085921 75.40755243734219 6.592460838840621 76 7.809999999999999 C 76.29020111250767 8.400231449911885 76.80382267052421 8.850345797101834 77.42703158363435 9.06058494851248 C 78.05024049674446 9.270824099923127 78.73156346004824 9.223823567154486 79.32 8.93 Z M 104.18 195.73000000000002 C 103.32933413527176 195.93297552594734 102.68500609907414 196.62886856753977 102.54799260513717 197.49261550966264 C 102.4109791112002 198.35636245178551 102.80832142399125 199.21749242457295 103.5544141114768 199.67375679884296 C 104.30050679896236 200.130021173113 105.24809947652903 200.09137067519816 105.95455529768515 199.57585961779776 C 106.66101111884126 199.06034856039736 106.9869025122911 198.1697192642015 106.78 197.32000000000002 C 106.49869360245116 196.16471453491062 105.33657247113472 195.454032766144 104.18 195.73 Z M 109.73 195.87 C 109.39886766881075 195.94570972959795 109.11233011625058 196.15190836236818 108.93535778110838 196.44184176249473 C 108.7583854459662 196.7317751626213 108.70597133826567 197.08088031368246 108.79 197.41 C 108.91025955170797 197.91433990206443 109.32288655762625 198.2963175168595 109.83499147671662 198.37737088467847 C 110.34709639580701 198.45842425249742 110.85751518279285 198.22254164163024 111.12764385842206 197.7799904070888 C 111.39777253405127 197.33743917254733 111.37424838190937 196.7756433390957 111.0680681686764 196.3572239638082 C 110.76188795544344 195.9388045885207 110.23353621817351 195.74641855487621 109.73 195.87 Z" stroke-linecap="round" />
</g>
</g>
</g>
</g>
</g>
<g transform="matrix(1.9211538461538462 0 0 1.9211538461538462 820.1674691522458 506.5870709992831)" id="text-logo"  >
<g style=""  paint-order="stroke"   >
		<g transform="matrix(1 0 0 1 0 0)" id="text-logo-path-0"  >
<path style="stroke: none; stroke-width: 0; stroke-dasharray: none; stroke-linecap: butt; stroke-dashoffset: 0; stroke-linejoin: miter; stroke-miterlimit: 4; fill: rgb(15,94,143); fill-rule: nonzero; opacity: 1;"  paint-order="stroke"  transform=" translate(-180.775, 30.099999999999998)" d="M 15.82 -26.66 L 32.59 -26.66 C 37.41 -26.66 41.19 -23.13 41.19 -19.44 C 41.19 -15.57 37.41 -12.04 32.59 -12.04 L 15.82 -12.04 Z M 3.78 -6.02 C 3.78 -2.67 6.45 0 9.8 0 L 32.59 0 C 43.77 0 53.23 -8.43 53.23 -19.44 C 53.23 -25.2 50.57 -30.27 46.27 -33.8 C 48.42 -36.64 49.62 -39.99 49.62 -43.52 C 49.62 -52.46 41.62 -60.2 31.13 -60.2 L 9.8 -60.2 C 6.45 -60.2 3.78 -57.53 3.78 -54.18 Z M 15.82 -38.7 L 15.82 -48.16 L 31.13 -48.16 C 34.92 -48.16 37.58 -45.75 37.58 -43.52 C 37.58 -41.11 34.92 -38.7 31.13 -38.7 Z M 102.5 -54.78 L 102.5 -25.11 C 102.5 -17.72 96.48 -11.7 89.17 -11.7 C 81.77 -11.7 75.75 -17.72 75.75 -25.11 L 75.75 -54.78 C 75.75 -58.14 73.09 -60.8 69.73 -60.8 C 66.38 -60.8 63.71 -58.14 63.71 -54.78 L 63.71 -25.11 C 63.71 -11.01 75.07 0.34 89.17 0.34 C 103.19 0.34 114.54 -11.01 114.54 -25.11 L 114.54 -54.78 C 114.54 -58.14 111.87 -60.8 108.52 -60.8 C 105.17 -60.8 102.5 -58.14 102.5 -54.78 Z M 131.73 -48.16 L 152.37 -48.16 L 126.31 -11.01 C 123.04 -6.19 126.48 0 132.24 0 L 162.77 0 C 166.04 0 168.79 -2.67 168.79 -6.02 C 168.79 -9.37 166.13 -12.04 162.77 -12.04 L 141.79 -12.04 L 167.85 -49.19 C 171.12 -54.01 167.68 -60.2 161.91 -60.2 L 131.73 -60.2 C 128.37 -60.2 125.71 -57.53 125.71 -54.18 C 125.71 -50.83 128.37 -48.16 131.73 -48.16 Z M 186.33 -48.16 L 206.97 -48.16 L 180.91 -11.01 C 177.64 -6.19 181.08 0 186.84 0 L 217.37 0 C 220.64 0 223.39 -2.67 223.39 -6.02 C 223.39 -9.37 220.73 -12.04 217.37 -12.04 L 196.39 -12.04 L 222.45 -49.19 C 225.71 -54.01 222.27 -60.2 216.51 -60.2 L 186.33 -60.2 C 182.97 -60.2 180.31 -57.53 180.31 -54.18 C 180.31 -50.83 182.97 -48.16 186.33 -48.16 Z M 246.26 -5.42 L 246.26 -54.78 C 246.26 -58.14 243.59 -60.8 240.24 -60.8 C 236.88 -60.8 234.22 -58.14 234.22 -54.78 L 234.22 -5.42 C 234.22 -2.06 236.88 0.6 240.24 0.6 C 243.59 0.6 246.26 -2.06 246.26 -5.42 Z M 268.78 -5.42 L 268.78 -22.36 L 287.01 -22.36 C 290.36 -22.36 293.03 -25.03 293.03 -28.38 C 293.03 -31.73 290.36 -34.4 287.01 -34.4 L 268.78 -34.4 L 268.78 -48.16 L 290.45 -48.16 C 293.8 -48.16 296.47 -50.83 296.47 -54.18 C 296.47 -57.53 293.8 -60.2 290.45 -60.2 L 262.76 -60.2 C 259.4 -60.2 256.74 -57.53 256.74 -54.18 L 256.74 -5.42 C 256.74 -2.06 259.4 0.6 262.76 0.6 C 266.11 0.6 268.78 -2.06 268.78 -5.42 Z M 345.73 -54.78 L 345.73 -43.69 C 345.73 -36.29 339.71 -30.27 332.32 -30.27 C 325.01 -30.27 318.99 -36.29 318.99 -43.69 L 318.99 -54.78 C 318.99 -58.14 316.32 -60.8 312.97 -60.8 C 309.61 -60.8 306.95 -58.14 306.95 -54.78 L 306.95 -43.69 C 306.95 -31.65 315.12 -21.67 326.3 -18.92 L 326.3 -18.83 L 326.38 -5.42 C 326.38 -2.15 329.05 0.6 332.4 0.6 C 335.76 0.6 338.42 -2.15 338.42 -5.42 L 338.34 -18.83 L 338.34 -18.92 C 349.43 -21.59 357.77 -31.65 357.77 -43.69 L 357.77 -54.78 C 357.77 -58.14 355.11 -60.8 351.75 -60.8 C 348.4 -60.8 345.73 -58.14 345.73 -54.78 Z" stroke-linecap="round" />
</g>
</g>
</g>
<g transform="matrix(1.9211538461538462 0 0 1.9211538461538462 260.7108523516272 513.5304104544838)" id="tagline-3152705a-3764-47fc-9e9b-b1693627290e-logo"  >
<g style=""  paint-order="stroke"   >
		<g transform="matrix(1 0 0 1 -1.421085e-14 0)" id="tagline-3152705a-3764-47fc-9e9b-b1693627290e-logo-path-0"  >
<path style="stroke: none; stroke-width: 0; stroke-dasharray: none; stroke-linecap: butt; stroke-dashoffset: 0; stroke-linejoin: miter; stroke-miterlimit: 4; fill: rgb(15,94,143); fill-rule: nonzero; opacity: 1;"  paint-order="stroke"  transform=" translate(-30.149001367400984, 24.9585189899803)" d="M 36.92 -33.88 C 41.33 -34.43 40.5 -41.33 36.09 -40.78 C 25.25 -39.4 22.29 -28.64 20.77 -19.67 C 18.77 -8.9 17.94 -5.73 10.14 -8.28 C 3.93 -10.35 0.41 -0.62 6.97 1.52 C 25.32 7.59 28.7 -9.38 30.29 -18.01 C 31.95 -27.6 32.43 -33.33 36.92 -33.88 Z M 8.35 -28.84 C 6.62 -22.7 16.42 -19.25 18.29 -25.94 C 20.91 -35.26 26.5 -45.82 39.12 -45.82 C 46.44 -45.82 47.89 -40.5 47.61 -37.47 C 47.47 -35.47 44.99 -28.43 30.98 -27.53 C 27.53 -27.32 27.81 -21.8 31.4 -22.01 C 46.85 -22.01 50.23 -17.66 49.89 -13.8 C 49.47 -8.69 44.02 -5.73 37.67 -5.66 C 34.22 -5.66 31.05 -6.62 27.74 -9.59 C 23.87 -13.04 18.15 -7.04 22.22 -3.38 C 26.77 0.69 32.57 2.62 37.67 2.62 C 47.54 2.55 56.03 -4.21 56.79 -13.25 C 57.82 -25.25 44.3 -27.53 31.19 -27.53 C 27.53 -27.32 27.81 -21.8 31.4 -22.01 C 42.78 -22.77 55.06 -27.88 55.89 -36.78 C 56.72 -46.99 49.34 -52.72 39.12 -52.72 C 23.39 -52.72 11.94 -41.54 8.35 -28.84 Z" stroke-linecap="round" />
</g>
</g>
</g>
</svg>